<svg width="960" height="300" viewBox="0 0 960 300" xmlns="http://www.w3.org/2000/svg" role="img" aria-label="WSL2 SSH Pageant Bridge logo">
  <defs>
    <linearGradient id="bg" x1="0" y1="0" x2="1" y2="1">
      <stop offset="0%" stop-color="#0f172a"/>
      <stop offset="100%" stop-color="#111827"/>
    </linearGradient>
    <linearGradient id="arrow" x1="0" y1="0" x2="1" y2="0">
      <stop offset="0%" stop-color="#9ca3af"/>
      <stop offset="100%" stop-color="#d1d5db"/>
    </linearGradient>
    <linearGradient id="win" x1="0" y1="0" x2="1" y2="1">
      <stop offset="0%" stop-color="#0ea5e9"/>
      <stop offset="100%" stop-color="#0284c7"/>
    </linearGradient>
    <filter id="softShadow" x="-20%" y="-20%" width="140%" height="140%">
      <feDropShadow dx="0" dy="5" stdDeviation="8" flood-color="#000000" flood-opacity="0.35"/>
    </filter>
  </defs>

  <rect x="0" y="0" width="960" height="300" rx="18" fill="url(#bg)"/>

  <rect x="90" y="60" width="180" height="120" rx="14" fill="url(#win)" filter="url(#softShadow)"/>
  <text x="180" y="134" font-family="Segoe UI, Arial, sans-serif" font-size="42" font-weight="700" fill="#ffffff" text-anchor="middle">WIN</text>

  <rect x="690" y="60" width="180" height="120" rx="14" fill="#05070c" stroke="#374151" stroke-width="2" filter="url(#softShadow)"/>
  <text x="780" y="134" font-family="Consolas, Menlo, monospace" font-size="42" font-weight="700" fill="#f9fafb" text-anchor="middle">WSL</text>

  <rect x="270" y="111" width="375" height="18" rx="9" fill="url(#arrow)"/>
  <polygon points="645,96 690,120 645,144" fill="url(#arrow)"/>

  <g transform="translate(452,67) scale(0.9)">
    <circle cx="24" cy="24" r="17" stroke="#facc15" stroke-width="4" fill="none"/>
    <rect x="38" y="20" width="42" height="8" rx="2" fill="#facc15"/>
    <rect x="72" y="20" width="6" height="14" fill="#facc15"/>
    <rect x="62" y="20" width="6" height="10" fill="#facc15"/>
  </g>

  <text x="480" y="228" font-family="Segoe UI, Arial, sans-serif" font-size="44" font-weight="700" fill="#e5e7eb" text-anchor="middle">WSL2 SSH Pageant Bridge</text>
  <text x="480" y="258" font-family="Segoe UI, Arial, sans-serif" font-size="18" fill="#9ca3af" text-anchor="middle">Secure Pageant relay from Windows to WSL SSH agent socket</text>
</svg>
